<?xml version="1.0" standalone="no"?><!DOCTYPE svg PUBLIC "-//W3C//DTD SVG 1.1//EN" "http://www.w3.org/Graphics/SVG/1.1/DTD/svg11.dtd"><svg t="1694588069200" class="icon" viewBox="0 0 1194 1024" version="1.1" xmlns="http://www.w3.org/2000/svg" p-id="16488" xmlns:xlink="http://www.w3.org/1999/xlink" width="37.3125" height="32"><path d="M1045.248 912H179.968c-27.52 0-49.92 22.4-49.92 49.92 0 27.52 22.4 49.92 49.92 49.92h865.92c27.52 0 49.92-22.4 49.92-49.92 0-27.52-23.04-49.92-50.56-49.92z m135.509333-119.893333c10.496-35.114667-49.194667-154.453333-156.074666-186.965334l-211.925334-39.296L433.066667 69.290667C414.72 34.56 373.589333 20.48 341.077333 37.973333c-32.512 17.493333-43.776 59.178667-25.472 93.866667l201.258667 379.562667L190.293333 451.413333 113.194667 305.962667a49.493333 49.493333 0 0 0-67.413334-20.48 49.493333 49.493333 0 0 0-20.48 67.413333l71.978667 136.106667c4.309333 24.533333 22.954667 46.762667 49.962667 55.338666l946.858666 290.816c36.693333 11.605333 76.202667-7.978667 86.656-43.093333z" fill="#1296db" p-id="16489"></path></svg>