<?xml version="1.0" standalone="no"?><!DOCTYPE svg PUBLIC "-//W3C//DTD SVG 1.1//EN" "http://www.w3.org/Graphics/SVG/1.1/DTD/svg11.dtd"><svg t="1694588141562" class="icon" viewBox="0 0 1024 1024" version="1.1" xmlns="http://www.w3.org/2000/svg" p-id="18606" xmlns:xlink="http://www.w3.org/1999/xlink" width="32" height="32"><path d="M512 672a161.92 161.92 0 0 1-69.44-15.68 32 32 0 0 1-14.72-42.88 32 32 0 0 1 42.56-14.72A96 96 0 0 0 512 608a96 96 0 0 0 0-192 32 32 0 0 1 0-64 160 160 0 0 1 0 320z" fill="#1296db" p-id="18607"></path><path d="M512 832a314.24 314.24 0 0 1-142.72-32c-8.32-4.16-16-8.32-24-13.12a32 32 0 0 1 32-54.72c6.4 3.84 12.8 7.36 19.52 10.56A250.56 250.56 0 0 0 512 768a256 256 0 0 0 0-512 32 32 0 0 1 0-64 320 320 0 0 1 0 640z" fill="#1296db" p-id="18608"></path><path d="M512 992a480 480 0 0 1-268.16-81.92 32 32 0 1 1 35.84-53.12A416 416 0 1 0 512 96a32 32 0 0 1 0-64 480 480 0 0 1 0 960z" fill="#1296db" p-id="18609"></path><path d="M512 672a160 160 0 0 1-160-160 32 32 0 0 1 64 0 96 96 0 0 0 96 96 32 32 0 0 1 0 64z" fill="#1296db" p-id="18610"></path><path d="M512 832A320 320 0 0 1 192 512a32 32 0 0 1 64 0 256 256 0 0 0 256 256 32 32 0 0 1 0 64z" fill="#1296db" p-id="18611"></path><path d="M512 992A480 480 0 0 1 32 512a32 32 0 0 1 64 0 416 416 0 0 0 416 416 32 32 0 0 1 0 64z" fill="#1296db" p-id="18612"></path></svg>