<?xml version="1.0" standalone="no"?><!DOCTYPE svg PUBLIC "-//W3C//DTD SVG 1.1//EN" "http://www.w3.org/Graphics/SVG/1.1/DTD/svg11.dtd"><svg t="1694587514983" class="icon" viewBox="0 0 1024 1024" version="1.1" xmlns="http://www.w3.org/2000/svg" p-id="10354" xmlns:xlink="http://www.w3.org/1999/xlink" width="32" height="32"><path d="M343.9 130.1c15.2 0 28.9 3.8 42.7 12.1 54.1 31.3 109.6 65.7 168.3 102.1 82.7 51.3 168.3 104.3 259.8 154.5C864 424 898 482.4 901.3 547.6c1.4 27.8-1.8 96.5-60.8 134.8-149.7 93-314.9 151.6-468.9 202.8-20.2 5.8-41.6 8.7-63.6 8.7-65 0-129-25.6-163-65.3-18-20.9-25.3-43.4-21.4-68.3l31.3-251.6 26.7-214.3C194.1 210 273 130.1 343.9 130.1m0-58.5c-100.2 0-203.5 102.2-220.1 214.3C104.4 441.7 85 597.4 65.6 753.2 48.4 865.2 174.7 952.4 308 952.4c26.6 0 53.5-3.5 79.6-10.9 171.5-57 332.7-115.6 483.7-209.5 136.8-88.7 106.2-315.4-30-385.2-152-83.5-293.9-179.1-425.5-255.2-22.9-13.8-47.3-20-71.9-20z" p-id="10355" fill="#1296db"></path><path d="M336.6 247.8l0.9 0.3c62 31.5 128.4 73.1 198.6 117.2 72.4 45.3 147.2 92.2 227.3 134.6 15.8 8.2 19.1 25.8 19.7 33.1 0.9 8.9 0.4 25.2-12.1 34-123.9 86.4-262.5 134.3-409.3 185.1l-59.8 20.8c-6.2 2.2-12.7 3.3-19.5 3.3-1.9 0-3.7-0.1-4.8-0.2-22.1-2.2-35.6-12.3-36.9-17.2L272 501.3 297.3 292c2.9-22.4 26.8-42.3 38.3-44.1l1-0.1m0-58.4c-3.4 0-6.8 0.3-10.2 0.8-37.1 5.9-80.9 46.1-87 94.4-18.9 155.7-37.7 311.4-56.6 467.2-6.2 48 41.4 77.7 89.2 82.4 3.5 0.3 7 0.4 10.5 0.4 13.3 0 26.4-2.2 39.1-6.7 174.6-61.2 335.6-110.2 483-213 38.5-27.2 38.4-70.9 36.8-87.5-1.6-17.1-10.2-58.2-50.9-79.3-155.7-82.5-297.8-186.6-426.3-252-8.9-4.5-18-6.7-27.6-6.7z" p-id="10356" fill="#1296db"></path><path d="M429 413.1c25.3 14 52.2 30.9 80.3 48.6 33.7 21.1 68.4 42.9 106 63.5-56.7 36.5-118.7 58-189.7 82.6l-21.5 6.8 10.7-88.7L429 413.1m-8.4-66.8c-21.8 0-45.2 22.6-48.5 47.2-9.8 81.1-19.6 162.2-29.5 243.4-3.2 23.5 21.6 40.8 49 40.8 6.6 0 13.3-1 19.9-3.1 91.1-32.1 174.9-57.4 251.6-111.1 28.3-20.3 22.8-67.8-7-82.8-81.2-42.9-155.3-97.4-222.1-131.1-4.3-2.3-8.8-3.3-13.4-3.3z" p-id="10357" fill="#1296db"></path></svg>