<?xml version="1.0" standalone="no"?><!DOCTYPE svg PUBLIC "-//W3C//DTD SVG 1.1//EN" "http://www.w3.org/Graphics/SVG/1.1/DTD/svg11.dtd"><svg t="1694585625726" class="icon" viewBox="0 0 1024 1024" version="1.1" xmlns="http://www.w3.org/2000/svg" p-id="4063" xmlns:xlink="http://www.w3.org/1999/xlink" width="32" height="32"><path d="M160 128a32 32 0 0 0-64 0v471.712c0 68.384 0 122.944 5.76 165.728 5.952 44.224 18.56 80.64 47.36 109.44s65.216 41.408 109.44 47.36c42.784 5.76 97.376 5.76 165.76 5.76h471.712a32 32 0 0 0 0-64H426.688c-71.296 0-121.568-0.064-159.584-5.184-37.12-4.992-57.76-14.24-72.704-29.184s-24.192-35.584-29.184-72.704c-5.12-38.048-5.184-88.288-5.184-159.584V128z m693.344 0a42.656 42.656 0 0 0 0 85.312h0.384a42.656 42.656 0 0 0 0-85.312h-0.384zM768 426.656a42.656 42.656 0 0 0 0 85.312h0.384a42.656 42.656 0 0 0 0-85.312H768zM426.656 256c0-23.552 19.104-42.656 42.656-42.656h0.384a42.656 42.656 0 0 1 0 85.312h-0.384A42.656 42.656 0 0 1 426.656 256z m42.688 170.656a42.656 42.656 0 0 0 0 85.312h0.384a42.656 42.656 0 0 0 0-85.312h-0.384z m-128 256c0-23.552 19.104-42.656 42.656-42.656h0.384a42.656 42.656 0 0 1 0 85.312H384a42.656 42.656 0 0 1-42.656-42.656z" p-id="4064" fill="#1296db"></path></svg>