<?xml version="1.0" standalone="no"?><!DOCTYPE svg PUBLIC "-//W3C//DTD SVG 1.1//EN" "http://www.w3.org/Graphics/SVG/1.1/DTD/svg11.dtd"><svg t="1694585840408" class="icon" viewBox="0 0 1025 1024" version="1.1" xmlns="http://www.w3.org/2000/svg" p-id="6217" xmlns:xlink="http://www.w3.org/1999/xlink" width="32.03125" height="32"><path d="M93.439775 545.906986" fill="#1296db" p-id="6218"></path><path d="M610.312445 339.89102" fill="#1296db" p-id="6219"></path><path d="M569.323244 339.205017c12.03782 0 21.767802-9.882541 21.767802-22.071896 0-12.190379-9.729982-22.050394-21.767802-22.050394L449.601357 295.082727c-12.015294 0-21.767802 9.882541-21.767802 22.050394 0 12.189355 9.751484 22.071896 21.767802 22.071896L569.323244 339.205017 569.323244 339.205017z" fill="#1296db" p-id="6220"></path><path d="M794.167437 339.205017c12.03782 0 21.767802-9.882541 21.767802-22.071896 0-12.190379-9.729982-22.050394-21.767802-22.050394L674.44555 295.082727c-12.03782 0-21.767802 9.882541-21.767802 22.050394 0 12.189355 9.729982 22.071896 21.767802 22.071896L794.167437 339.205017 794.167437 339.205017z" fill="#1296db" p-id="6221"></path><path d="M569.323244 471.552434c12.03782 0 21.767802-9.86104 21.767802-22.050394s-9.729982-22.071896-21.767802-22.071896L449.601357 427.430144c-12.015294 0-21.767802 9.882541-21.767802 22.071896s9.751484 22.050394 21.767802 22.050394L569.323244 471.552434 569.323244 471.552434z" fill="#1296db" p-id="6222"></path><path d="M794.167437 471.552434c12.03782 0 21.767802-9.86104 21.767802-22.050394s-9.729982-22.071896-21.767802-22.071896L674.44555 427.430144c-12.03782 0-21.767802 9.882541-21.767802 22.071896s9.729982 22.050394 21.767802 22.050394L794.167437 471.552434 794.167437 471.552434z" fill="#1296db" p-id="6223"></path><path d="M569.323244 603.942854c12.03782 0 21.767802-9.882541 21.767802-22.071896 0-12.21188-9.729982-22.071896-21.767802-22.071896L449.601357 559.799063c-12.015294 0-21.767802 9.86104-21.767802 22.071896 0 12.190379 9.751484 22.071896 21.767802 22.071896L569.323244 603.942854 569.323244 603.942854z" fill="#1296db" p-id="6224"></path><path d="M794.167437 603.942854c12.03782 0 21.767802-9.882541 21.767802-22.071896 0-12.21188-9.729982-22.071896-21.767802-22.071896L674.44555 559.799063c-12.03782 0-21.767802 9.86104-21.767802 22.071896 0 12.190379 9.729982 22.071896 21.767802 22.071896L794.167437 603.942854 794.167437 603.942854z" fill="#1296db" p-id="6225"></path><path d="M794.167437 603.942854" fill="#1296db" p-id="6226"></path><path d="M569.323244 736.3558c12.03782 0 21.767802-9.882541 21.767802-22.071896 0-12.21188-9.729982-22.071896-21.767802-22.071896L449.601357 692.212008c-12.015294 0-21.767802 9.86104-21.767802 22.071896 0 12.190379 9.751484 22.071896 21.767802 22.071896L569.323244 736.3558 569.323244 736.3558z" fill="#1296db" p-id="6227"></path><path d="M794.167437 736.3558c12.03782 0 21.767802-9.882541 21.767802-22.071896 0-12.21188-9.729982-22.071896-21.767802-22.071896L674.44555 692.212008c-12.03782 0-21.767802 9.86104-21.767802 22.071896 0 12.190379 9.729982 22.071896 21.767802 22.071896L794.167437 736.3558 794.167437 736.3558z" fill="#1296db" p-id="6228"></path><path d="M794.167437 736.3558" fill="#1296db" p-id="6229"></path><path d="M351.647272 339.205017c12.03782 0 21.767802-9.882541 21.767802-22.071896 0-12.190379-9.729982-22.050394-21.767802-22.050394L231.925384 295.082727c-12.015294 0-21.767802 9.882541-21.767802 22.050394 0 12.189355 9.751484 22.071896 21.767802 22.071896L351.647272 339.205017 351.647272 339.205017z" fill="#1296db" p-id="6230"></path><path d="M351.647272 471.552434c12.03782 0 21.767802-9.86104 21.767802-22.050394s-9.729982-22.071896-21.767802-22.071896L231.925384 427.430144c-12.015294 0-21.767802 9.882541-21.767802 22.071896s9.751484 22.050394 21.767802 22.050394L351.647272 471.552434 351.647272 471.552434z" fill="#1296db" p-id="6231"></path><path d="M351.647272 603.942854c12.03782 0 21.767802-9.882541 21.767802-22.071896 0-12.21188-9.729982-22.071896-21.767802-22.071896L231.925384 559.799063c-12.015294 0-21.767802 9.86104-21.767802 22.071896 0 12.190379 9.751484 22.071896 21.767802 22.071896L351.647272 603.942854 351.647272 603.942854z" fill="#1296db" p-id="6232"></path><path d="M569.323244 603.942854" fill="#1296db" p-id="6233"></path><path d="M351.647272 736.3558c12.03782 0 21.767802-9.882541 21.767802-22.071896 0-12.21188-9.729982-22.071896-21.767802-22.071896L231.925384 692.212008c-12.015294 0-21.767802 9.86104-21.767802 22.071896 0 12.190379 9.751484 22.071896 21.767802 22.071896L351.647272 736.3558 351.647272 736.3558z" fill="#1296db" p-id="6234"></path><path d="M569.323244 736.3558" fill="#1296db" p-id="6235"></path><path d="M957.949158 228.233254c0-69.295535-55.219159-125.491481-123.359752-125.491481L89.376998 102.741773 64.709553 102.741773l0 25.066761 0 667.613163c0 69.228982 55.240661 125.379877 123.359752 125.379877l745.211384 0 24.667445 0 0-25.066761L957.948134 424.397395c0-0.721839-0.03686-1.434463-0.095221-2.13992L957.949158 228.233254zM908.614267 870.668053 188.069304 870.668053c-40.853024 0-74.002336-33.704257-74.002336-75.267858L114.066968 152.876318l720.543939 0c40.853024 0 74.002336 33.748284 74.002336 75.356936l0.170989 193.24914c-0.109556 0.957333-0.170989 1.927976-0.170989 2.915002L908.613243 870.668053z" fill="#1296db" p-id="6236"></path></svg>