<?xml version="1.0" standalone="no"?><!DOCTYPE svg PUBLIC "-//W3C//DTD SVG 1.1//EN" "http://www.w3.org/Graphics/SVG/1.1/DTD/svg11.dtd"><svg t="1694588227175" class="icon" viewBox="0 0 1024 1024" version="1.1" xmlns="http://www.w3.org/2000/svg" p-id="19926" xmlns:xlink="http://www.w3.org/1999/xlink" width="32" height="32"><path d="M864 315.967V832c0 17.673-14.327 32-32 32H512c-17.673 0-32-14.327-32-32V224H224v484.033c55.207 14.209 96 64.324 96 123.967 0 70.692-57.308 128-128 128S64 902.692 64 832c0-59.643 40.793-109.758 96-123.967V192c0-17.673 14.327-32 32-32h320c17.673 0 32 14.327 32 32v608h256V315.967c-55.207-14.209-96-64.324-96-123.967 0-70.692 57.308-128 128-128s128 57.308 128 128c0 59.643-40.793 109.758-96 123.967zM128 832c0 35.346 28.654 64 64 64s64-28.654 64-64-28.654-64-64-64-64 28.654-64 64z m704-704c-35.346 0-64 28.654-64 64s28.654 64 64 64 64-28.654 64-64-28.654-64-64-64z" p-id="19927" fill="#1296db"></path></svg>